# xmcd
#
# Track frame offsets:
#	180
#	18841
#	40959
#	56990
#	75976
#	89825
#	106216
#	128399
#	146414
#	160448
#	178301
#	192443
#	202540
#	227864
#	253483
#	268471
#	286850
#
# Disc length: 4148 seconds
#
# Revision: 1
# Processed by: cddbd v1.5.2PL0 Copyright (c) Steve Scherf et al.
# Submitted via: audiograbber 1.83.01
#
DISCID=f6103211
DTITLE=The Bootleggin' Hobos - Ain't Nobody Here But Us Chickens
DYEAR=1995
DGENRE=Blues
TTITLE0=Rock This House
TTITLE1=I Can Tell
TTITLE2=Telephone Blues
TTITLE3=No More Doggin'
TTITLE4=Put It On The Tab
TTITLE5=You Go
TTITLE6=Little Hands (for Luca)
TTITLE7=Greasy Gravy
TTITLE8=That's It, I Quit
TTITLE9=600 Women
TTITLE10=Okie Dokie Stomp
TTITLE11=Ain't Nobody Here But Us Chickens
TTITLE12=Help Me
TTITLE13=Third Degree
TTITLE14=Moonshine
TTITLE15=Rocking
TTITLE16=Nobody But You
EXTD=
EXTT0=
EXTT1=
EXTT2=
EXTT3=
EXTT4=
EXTT5=
EXTT6=
EXTT7=
EXTT8=
EXTT9=
EXTT10=
EXTT11=
EXTT12=
EXTT13=
EXTT14=
EXTT15=
EXTT16=
PLAYORDER=
